<?xml version="1.0" standalone="no"?>
<!DOCTYPE svg PUBLIC "-//W3C//DTD SVG 20010904//EN"
 "http://www.w3.org/TR/2001/REC-SVG-20010904/DTD/svg10.dtd">
<svg version="1.0" xmlns="http://www.w3.org/2000/svg"
 width="120.000000pt" height="153.000000pt" viewBox="0 0 120.000000 153.000000"
 preserveAspectRatio="xMidYMid meet">

<g transform="translate(0.000000,153.000000) scale(0.100000,-0.100000)"
fill="#000000" stroke="none">
<path d="M56 1444 c4 -20 12 -59 18 -88 l11 -51 307 -3 306 -2 7 72 c3 40 9
81 11 91 5 16 -15 17 -331 17 l-336 0 7 -36z"/>
<path d="M106 1173 c17 -167 -3 -634 -33 -750 l-5 -23 161 0 161 0 0 55 0 55
55 -31 c30 -17 88 -40 128 -50 144 -38 433 -61 524 -43 24 5 33 14 42 44 14
47 14 120 0 157 -16 45 -69 91 -125 112 -43 17 -67 19 -143 14 -104 -7 -166
10 -201 54 -25 32 -25 69 0 288 11 94 20 176 20 183 0 9 -66 12 -296 12 l-296
0 8 -77z"/>
<path d="M688 250 c-4 -8 -8 -50 -10 -93 -3 -65 0 -77 13 -77 12 0 14 7 11 30
-3 22 0 30 10 30 20 0 42 -47 25 -54 -7 -2 4 -5 23 -5 28 0 32 2 17 10 -9 5
-24 23 -32 39 -14 27 -14 30 7 44 l22 16 -23 0 c-14 0 -21 -3 -18 -7 8 -7 -11
-33 -24 -33 -4 0 -9 26 -11 58 -2 31 -6 50 -10 42z"/>
<path d="M315 192 c-5 -4 -10 -31 -10 -60 0 -40 4 -52 15 -52 12 0 14 10 12
48 -4 67 -6 72 -17 64z"/>
<path d="M370 185 c7 -8 11 -33 8 -60 -3 -38 0 -45 15 -45 14 0 16 4 7 19 -5
11 -10 35 -10 54 0 23 -6 37 -16 41 -14 5 -15 4 -4 -9z"/>
<path d="M603 189 c20 -12 23 -39 5 -39 -9 0 -9 -3 1 -9 8 -5 12 -18 9 -29 -4
-13 0 -23 9 -26 23 -9 28 -7 15 6 -7 7 -12 31 -12 54 0 29 -5 44 -16 48 -24 9
-31 7 -11 -5z"/>
<path d="M826 184 c-19 -18 -21 -75 -4 -92 7 -7 23 -11 38 -11 20 1 21 2 5 6
-44 10 -54 71 -17 101 9 6 11 12 5 12 -7 0 -19 -7 -27 -16z"/>
<path d="M945 193 c-6 -1 -8 -24 -6 -49 2 -32 -1 -49 -10 -55 -9 -6 -2 -8 21
-8 19 0 29 3 23 6 -14 5 -17 50 -7 77 3 9 15 16 25 16 10 0 19 5 19 10 0 12
-10 13 -30 0 -8 -5 -17 -5 -20 -1 -3 4 -10 6 -15 4z"/>
<path d="M201 173 c-1 -14 10 -28 35 -42 32 -19 34 -24 23 -38 -12 -14 -12
-16 1 -11 8 2 16 14 18 26 3 17 -4 26 -32 37 -19 8 -37 23 -39 32 -4 14 -5 14
-6 -4z"/>
<path d="M255 180 c3 -5 8 -10 11 -10 2 0 4 5 4 10 0 6 -5 10 -11 10 -5 0 -7
-4 -4 -10z"/>
<path d="M438 164 c-25 -54 46 -112 83 -68 13 16 12 16 -9 3 -35 -22 -57 -2
-56 50 2 48 -2 51 -18 15z"/>
<path d="M507 170 c3 -11 9 -20 15 -20 5 0 4 9 -2 20 -6 11 -12 20 -14 20 -2
0 -2 -9 1 -20z"/>
<path d="M560 174 c0 -8 5 -12 10 -9 6 3 10 10 10 16 0 5 -4 9 -10 9 -5 0 -10
-7 -10 -16z"/>
<path d="M877 171 c3 -12 9 -21 14 -21 14 0 11 16 -5 29 -12 10 -13 8 -9 -8z"/>
<path d="M566 121 c-21 -23 -13 -41 17 -40 17 1 18 2 5 6 -21 5 -23 24 -6 41
7 7 10 12 7 12 -3 0 -14 -9 -23 -19z"/>
<path d="M190 113 c0 -15 18 -35 27 -32 5 2 1 12 -9 22 -10 9 -18 14 -18 10z"/>
</g>
</svg>
